<?xml version="1.0" standalone="no"?>
<!DOCTYPE svg PUBLIC "-//W3C//DTD SVG 20010904//EN"
 "http://www.w3.org/TR/2001/REC-SVG-20010904/DTD/svg10.dtd">
<svg version="1.0" xmlns="http://www.w3.org/2000/svg"
 width="1536.000000pt" height="1536.000000pt" viewBox="0 0 1536.000000 1536.000000"
 preserveAspectRatio="xMidYMid meet">
<metadata>
Created by potrace 1.11, written by Peter Selinger 2001-2013
</metadata>
<g transform="translate(0.000000,1536.000000) scale(0.100000,-0.100000)"
fill="#000000" stroke="none">
<path d="M3530 14449 c-538 -23 -1013 -179 -1453 -476 -148 -100 -241 -176
-386 -317 -450 -440 -725 -980 -816 -1601 -9 -60 -20 -207 -25 -325 -12 -281
-12 -7939 0 -8220 5 -118 16 -264 25 -325 63 -429 214 -821 453 -1170 104
-152 176 -240 316 -384 323 -330 691 -561 1116 -701 269 -89 483 -126 805
-140 276 -12 7954 -12 8230 0 322 14 536 51 805 140 425 140 793 371 1116 701
140 144 212 232 316 384 239 349 390 741 453 1170 9 61 20 207 25 325 12 281
12 7939 0 8220 -5 118 -16 265 -25 325 -91 621 -366 1161 -816 1601 -145 141
-238 217 -386 317 -225 152 -434 255 -683 337 -269 89 -483 126 -805 140 -252
11 -8011 10 -8265 -1z m8505 -34 c322 -38 611 -124 899 -269 282 -142 487
-290 704 -506 412 -412 663 -908 765 -1510 l21 -125 3 -4235 c3 -3036 1 -4272
-7 -4364 -69 -813 -494 -1542 -1169 -2004 -343 -236 -726 -383 -1166 -449
-114 -17 -331 -18 -4405 -18 -4074 0 -4291 1 -4405 18 -440 66 -823 213 -1166
449 -675 462 -1100 1191 -1169 2004 -8 92 -10 1328 -7 4364 l3 4235 21 125
c102 602 352 1097 765 1509 217 217 422 365 704 507 281 141 576 231 887 268
93 12 843 14 4352 15 3729 1 4256 -1 4370 -14z"/>
<path d="M7325 13073 c-1588 -102 -3041 -889 -4000 -2168 -589 -785 -941
-1687 -1052 -2695 -26 -236 -26 -854 0 -1090 140 -1274 674 -2394 1563 -3284
890 -889 2010 -1423 3284 -1563 236 -26 854 -26 1090 0 1137 125 2141 558
2990 1289 1144 986 1831 2413 1877 3901 l6 207 -3886 0 -3887 0 0 -530 0 -530
3290 0 c1810 0 3290 -2 3290 -4 0 -3 -20 -74 -44 -158 -53 -184 -135 -405
-218 -585 l-61 -133 -2423 0 -2424 0 0 -525 0 -525 2057 0 2058 0 -90 -91
c-568 -575 -1327 -994 -2126 -1173 -147 -33 -390 -72 -549 -88 -161 -16 -649
-16 -810 0 -938 95 -1775 458 -2475 1073 -829 729 -1343 1738 -1457 2859 -16
161 -16 649 0 810 53 523 190 1015 408 1468 221 459 466 810 818 1170 649 665
1476 1097 2395 1252 307 52 323 53 1374 57 l987 4 0 -825 0 -826 533 2 532 3
3 1353 2 1352 -1502 -2 c-827 -1 -1525 -3 -1553 -5z"/>
<path d="M7650 9075 l0 -525 2715 0 2715 0 0 525 0 525 -2715 0 -2715 0 0
-525z"/>
</g>
</svg>
